<!-- icon666.com - MILLIONS OF FREE VECTOR ICONS --><svg id="Layer_1" enable-background="new 0 0 256 256" viewBox="0 0 256 256" xmlns="http://www.w3.org/2000/svg"><g><g><g><g><path d="m159.701 74.547c5.2-6.75 8.299-15.202 8.299-24.381 0-22.091-17.909-40-40-40s-40 17.909-40 40c0 9.18 3.1 17.631 8.299 24.381z" fill="#e59a5c"></path></g><g><path d="m110.74 74.547h34.521c7.632-5.413 12.618-14.312 12.618-24.381 0-16.502-13.377-29.879-29.879-29.879s-29.879 13.377-29.879 29.878c0 10.069 4.986 18.968 12.619 24.382z" fill="#fcc171"></path></g><path d="m131.017 46.657h-1.017v-11.081h1.017c3.055 0 5.54 2.485 5.54 5.541 0 1.104.896 2 2 2s2-.896 2-2c0-5.261-4.279-9.541-9.54-9.541h-1.017v-1.017c0-1.104-.896-2-2-2s-2 .896-2 2v1.017h-1.016c-5.261 0-9.541 4.28-9.541 9.541s4.28 9.541 9.541 9.541h1.016v14.098h-1.016c-3.055 0-5.541-2.485-5.541-5.541 0-1.104-.896-2-2-2s-2 .896-2 2c0 5.261 4.28 9.541 9.541 9.541h1.016v1.017c0 1.104.896 2 2 2s2-.896 2-2v-1.017h1.017c5.261 0 9.54-4.28 9.54-9.541v-3.017c0-5.261-4.28-9.541-9.54-9.541zm-6.033 0c-3.055 0-5.541-2.486-5.541-5.541s2.486-5.541 5.541-5.541h1.016v11.082zm11.573 12.557c0 3.055-2.485 5.541-5.54 5.541h-1.017v-14.098h1.017c3.055 0 5.54 2.485 5.54 5.541z" fill="#422618"></path></g><g><g><g><path d="m48.421 123.25h159.157v105.808h-159.157z" fill="#fedbb0"></path></g><g><path d="m213.344 229.059h-170.688c-2.761 0-5 2.239-5 5v9.776c0 1.105.895 2 2 2h176.687c1.105 0 2-.895 2-2v-9.776c.001-2.762-2.238-5-4.999-5z" fill="#725246"></path></g><g><g><g><path d="m50.4 142.65c10.714 0 19.4-8.686 19.4-19.4h-38.8c0 10.715 8.686 19.4 19.4 19.4z" fill="#e06e9a"></path></g></g><g><g><path d="m89.2 142.65c10.714 0 19.4-8.686 19.4-19.4h-38.8c0 10.715 8.686 19.4 19.4 19.4z" fill="#cc628e"></path></g></g><g><g><path d="m108.6 123.25c0 10.714 8.686 19.4 19.4 19.4s19.4-8.686 19.4-19.4z" fill="#e06e9a"></path></g></g><g><g><path d="m147.4 123.25c0 10.714 8.686 19.4 19.4 19.4s19.4-8.686 19.4-19.4z" fill="#cc628e"></path></g></g><g><g><path d="m186.2 123.25c0 10.714 8.686 19.4 19.4 19.4s19.4-8.686 19.4-19.4z" fill="#e06e9a"></path></g></g><g><g><path d="m69.8 123.25h-38.8l19.4-31.831h31.04z" fill="#cc628e"></path></g><g><path d="m225 123.25h-38.8l-11.64-31.831h31.04z" fill="#cc628e"></path></g><g><path d="m108.6 123.25h-38.8l11.64-31.831h31.04z" fill="#e06e9a"></path></g><g><path d="m147.4 123.25h-38.8l3.88-31.831h31.04z" fill="#cc628e"></path></g><g><path d="m186.2 123.25h-38.8l-3.88-31.831h31.04z" fill="#e06e9a"></path></g></g></g><g><path d="m50.4 79.547v11.872h155.2v-11.872c0-2.761-2.239-5-5-5h-145.2c-2.761 0-5 2.238-5 5z" fill="#725246"></path></g><g><path d="m186.503 201.561h-117.006v-43.333c0-2.761 2.239-5 5-5h107.006c2.761 0 5 2.239 5 5z" fill="#8dc8d8"></path></g><g><path d="m181.503 153.228h-20c2.761 0 5 2.239 5 5v43.333h20v-43.333c0-2.761-2.239-5-5-5z" fill="#7eb7c4"></path></g><g><path d="m190.503 201.561h-125.006c-1.105 0-2 .895-2 2v8.019c0 1.105.895 2 2 2h125.006c1.105 0 2-.895 2-2v-8.019c0-1.105-.896-2-2-2z" fill="#827f7e"></path></g></g></g></g><g><path d="m216.344 247.834h-176.688c-2.206 0-4-1.794-4-4v-9.776c0-3.86 3.14-7 7-7h3.765v-82.776c-10.05-1.873-17.421-10.616-17.421-21.032 0-.367.101-.727.292-1.041l19.108-31.352v-11.311c0-3.86 3.14-7 7-7h37.06c-4.238-6.692-6.46-14.354-6.46-22.38 0-23.159 18.841-42 42-42s42 18.841 42 42c0 8.027-2.222 15.689-6.46 22.381h37.06c3.859 0 7 3.14 7 7v11.311l19.108 31.352c.19.313.292.674.292 1.041 0 10.416-7.371 19.158-17.422 21.032v82.776h3.766c3.859 0 7 3.14 7 7v9.776c0 2.205-1.794 3.999-4 3.999zm-173.688-16.775c-1.654 0-3 1.346-3 3v9.776h176.688v-9.776c0-1.654-1.346-3-3-3h-5.766c-1.104 0-2-.896-2-2v-86.509c0-1.026.777-1.886 1.799-1.99 8.725-.884 15.348-8.043 15.614-16.762l-19.1-31.338c-.19-.313-.292-.674-.292-1.041v-11.873c0-1.654-1.346-3-3-3h-40.898c-.762 0-1.458-.433-1.795-1.117-.336-.684-.255-1.5.211-2.103 5.157-6.696 7.883-14.704 7.883-23.16 0-20.953-17.047-38-38-38s-38 17.047-38 38c0 8.456 2.726 16.465 7.883 23.161.465.604.546 1.419.21 2.103s-1.032 1.117-1.794 1.117h-40.899c-1.654 0-3 1.346-3 3v11.873c0 .367-.101.727-.292 1.041l-19.1 31.338c.267 8.72 6.89 15.878 15.615 16.762 1.021.104 1.798.963 1.798 1.99v86.508c0 1.104-.896 2-2 2z" fill="#422618"></path></g></g></svg>