<?xml version="1.0" encoding="UTF-8"?>
<!DOCTYPE svg PUBLIC "-//W3C//DTD SVG 1.1//EN" "http://www.w3.org/Graphics/SVG/1.1/DTD/svg11.dtd">
<!-- Creator: CorelDRAW -->
<svg xmlns="http://www.w3.org/2000/svg" xml:space="preserve" width="62px" height="31px" version="1.1" style="shape-rendering:geometricPrecision; text-rendering:geometricPrecision; image-rendering:optimizeQuality; fill-rule:evenodd; clip-rule:evenodd"
viewBox="0 0 62 31"
 xmlns:xlink="http://www.w3.org/1999/xlink"
 xmlns:xodm="http://www.corel.com/coreldraw/odm/2003">
 <defs>
  <style type="text/css">
   <![CDATA[
    .fil0 {fill:white;fill-rule:nonzero}
   ]]>
  </style>
 </defs>
 <g id="Слой_x0020_1">
  <metadata id="CorelCorpID_0Corel-Layer"/>
  <path class="fil0" d="M7.46 7.839l0.882 0c0.809,0 1.378,-0.107 1.707,-0.324 0.327,-0.215 0.491,-0.582 0.491,-1.095 0,-0.524 -0.158,-0.895 -0.472,-1.105 -0.316,-0.213 -0.925,-0.318 -1.829,-0.318l-0.779 0 0 2.842zm0 3.172c0,0.356 0.049,0.582 0.145,0.676 0.096,0.094 0.342,0.14 0.737,0.14l0.619 0 0 1.001 -4.739 0 0 -1.001 0.514 0c0.39,0 0.634,-0.046 0.728,-0.138 0.094,-0.092 0.14,-0.318 0.14,-0.678l0 -5.198c0,-0.36 -0.046,-0.586 -0.14,-0.678 -0.094,-0.092 -0.338,-0.138 -0.728,-0.138l-0.514 0 0 -1.001 4.649 0c1.191,0 2.088,0.204 2.696,0.612 0.605,0.406 0.908,1.011 0.908,1.812 0,0.439 -0.084,0.821 -0.248,1.145 -0.165,0.327 -0.415,0.603 -0.748,0.832 -0.239,0.157 -0.575,0.272 -1.003,0.34 -0.427,0.068 -1.026,0.103 -1.792,0.103l-1.224 0 0 2.171z"/>
  <path id="_1" class="fil0" d="M17.542 8.971l-1.145 -3.053 -1.04 3.053 2.185 0zm-5.75 3.857l0 -1.001 0.275 0c0.333,0 0.583,-0.059 0.748,-0.177 0.164,-0.119 0.307,-0.345 0.428,-0.678l2.461 -6.976 1.851 0 2.635 6.976c0.149,0.406 0.287,0.651 0.414,0.733 0.125,0.081 0.342,0.122 0.652,0.122l0.263 0 0 1.001 -4.569 0 0 -1.001 0.713 0c0.287,0 0.482,-0.024 0.583,-0.074 0.099,-0.048 0.149,-0.138 0.149,-0.268 0,-0.046 -0.006,-0.101 -0.022,-0.16 -0.015,-0.059 -0.046,-0.151 -0.092,-0.27l-0.379 -1.044 -2.911 0 -0.38 1.114c-0.008,0.031 -0.024,0.075 -0.043,0.136 -0.044,0.123 -0.066,0.211 -0.066,0.264 0,0.116 0.041,0.195 0.125,0.239 0.083,0.041 0.281,0.063 0.588,0.063l0.682 0 0 1.001 -4.105 0z"/>
  <path id="_2" class="fil0" d="M21.758 12.828l0 -1.001 0.513 0c0.391,0 0.634,-0.046 0.729,-0.138 0.094,-0.092 0.14,-0.318 0.14,-0.678l0 -5.201c0,-0.357 -0.046,-0.583 -0.14,-0.675 -0.095,-0.092 -0.338,-0.138 -0.729,-0.138l-0.513 0 0 -1.001 4.738 0 0 1.001 -0.618 0c-0.395,0 -0.641,0.046 -0.737,0.14 -0.097,0.094 -0.145,0.318 -0.145,0.673l0 1.95 3.817 0 0 -1.95c0,-0.357 -0.046,-0.583 -0.141,-0.675 -0.094,-0.092 -0.335,-0.138 -0.724,-0.138l-0.623 0 0 -1.001 4.738 0 0 1.001 -0.513 0c-0.395,0 -0.64,0.046 -0.737,0.14 -0.096,0.094 -0.145,0.318 -0.145,0.673l0 5.201c0,0.356 0.049,0.582 0.145,0.676 0.097,0.094 0.342,0.14 0.737,0.14l0.513 0 0 1.001 -4.738 0 0 -1.001 0.623 0c0.389,0 0.63,-0.046 0.724,-0.138 0.095,-0.092 0.141,-0.318 0.141,-0.678l0 -2.185 -3.817 0 0 2.185c0,0.356 0.048,0.582 0.145,0.676 0.096,0.094 0.342,0.14 0.737,0.14l0.618 0 0 1.001 -4.738 0z"/>
  <path id="_3" class="fil0" d="M34.922 8.405c0,1.141 0.246,2.029 0.739,2.666 0.491,0.636 1.174,0.954 2.049,0.954 0.873,0 1.553,-0.318 2.044,-0.952 0.49,-0.634 0.735,-1.523 0.735,-2.668 0,-1.14 -0.243,-2.027 -0.732,-2.658 -0.487,-0.632 -1.17,-0.948 -2.047,-0.948 -0.875,0 -1.558,0.316 -2.049,0.948 -0.493,0.631 -0.739,1.518 -0.739,2.658zm-2.08 0c0,-1.397 0.448,-2.522 1.341,-3.378 0.892,-0.853 2.068,-1.281 3.527,-1.281 1.461,0 2.634,0.428 3.525,1.281 0.888,0.856 1.334,1.981 1.334,3.378 0,1.402 -0.446,2.53 -1.338,3.387 -0.891,0.858 -2.065,1.286 -3.521,1.286 -1.459,0 -2.635,-0.43 -3.527,-1.288 -0.893,-0.86 -1.341,-1.987 -1.341,-3.385z"/>
  <path id="_4" class="fil0" d="M51.005 12.828l0 -1.001 0.592 0c0.391,0 0.632,-0.046 0.727,-0.138 0.094,-0.092 0.142,-0.318 0.142,-0.678l0 -5.705 -2.847 7.522 -0.871 0 -2.678 -7.671 0 5.854c0,0.36 0.046,0.586 0.14,0.678 0.094,0.092 0.338,0.138 0.728,0.138l0.527 0 0 1.001 -4.12 0 0 -1.001 0.476 0c0.388,0 0.632,-0.046 0.726,-0.138 0.095,-0.092 0.141,-0.318 0.141,-0.678l0 -5.198c0,-0.36 -0.046,-0.586 -0.141,-0.678 -0.094,-0.092 -0.338,-0.138 -0.726,-0.138l-0.476 0 0 -1.001 4.107 0 1.967 5.73 2.192 -5.73 3.935 0 0 1.001 -0.502 0c-0.393,0 -0.639,0.046 -0.735,0.14 -0.097,0.094 -0.145,0.32 -0.145,0.676l0 5.198c0,0.356 0.048,0.582 0.145,0.676 0.096,0.094 0.342,0.14 0.735,0.14l0.502 0 0 1.001 -4.541 0z"/>
  <path id="_5" class="fil0" d="M7.447 20.746l-0.173 0c-0.704,0 -1.218,0.211 -1.538,0.632 -0.32,0.424 -0.487,1.108 -0.5,2.054l-1.014 0 0 -3.659 8.319 0 0 3.659 -1.014 0c-0.009,-0.935 -0.173,-1.615 -0.496,-2.043 -0.32,-0.428 -0.833,-0.643 -1.535,-0.643l-0.193 0 0 6.042c0,0.355 0.048,0.581 0.145,0.675 0.096,0.095 0.342,0.141 0.734,0.141l0.753 0 0 1 -5.12 0 0 -1 0.766 0c0.388,0 0.631,-0.046 0.726,-0.138 0.094,-0.093 0.14,-0.319 0.14,-0.678l0 -6.042z"/>
  <path id="_6" class="fil0" d="M16.386 23.432l1.557 0c0.626,0 1.084,-0.106 1.376,-0.319 0.292,-0.21 0.436,-0.548 0.436,-1.011 0,-0.476 -0.138,-0.816 -0.416,-1.02 -0.279,-0.206 -0.76,-0.309 -1.439,-0.309l-1.514 0 0 2.659zm0 3.354c0,0.357 0.048,0.581 0.145,0.675 0.096,0.094 0.342,0.143 0.737,0.143l0.618 0 0 1 -4.738 0 0 -1 0.513 0c0.391,0 0.634,-0.046 0.729,-0.138 0.094,-0.093 0.14,-0.319 0.14,-0.68l0 -5.197c0,-0.36 -0.046,-0.586 -0.14,-0.678 -0.095,-0.092 -0.338,-0.138 -0.729,-0.138l-0.513 0 0 -1 5.276 0c1.105,0 1.926,0.173 2.463,0.519 0.535,0.349 0.803,0.882 0.803,1.602 0,0.634 -0.213,1.141 -0.64,1.52 -0.426,0.379 -1.056,0.619 -1.889,0.717 0.632,0.094 1.072,0.272 1.325,0.535 0.25,0.266 0.397,0.722 0.441,1.374l0.057 0.791c0.022,0.31 0.059,0.51 0.116,0.604 0.055,0.094 0.147,0.142 0.274,0.142 0.255,0 0.391,-0.482 0.408,-1.447 0,-0.018 0,-0.031 0,-0.038l0.836 0c0.009,0.055 0.015,0.114 0.017,0.176 0.003,0.061 0.003,0.151 0.003,0.267 0,0.81 -0.147,1.4 -0.441,1.773 -0.292,0.373 -0.757,0.559 -1.391,0.559 -0.522,0 -0.932,-0.142 -1.228,-0.43 -0.294,-0.287 -0.452,-0.684 -0.468,-1.195l-0.039 -1.036c-0.027,-0.688 -0.178,-1.158 -0.459,-1.403 -0.28,-0.248 -0.811,-0.371 -1.594,-0.371l-0.632 0 0 2.354z"/>
  <path id="_7" class="fil0" d="M28.584 24.748l-1.145 -3.054 -1.039 3.054 2.184 0zm-5.749 3.856l0 -1 0.274 0c0.334,0 0.584,-0.06 0.748,-0.178 0.165,-0.118 0.307,-0.344 0.428,-0.678l2.461 -6.975 1.852 0 2.634 6.975c0.149,0.406 0.287,0.652 0.415,0.733 0.125,0.081 0.342,0.123 0.651,0.123l0.263 0 0 1 -4.569 0 0 -1 0.713 0c0.287,0 0.483,-0.024 0.584,-0.075 0.098,-0.048 0.149,-0.138 0.149,-0.268 0,-0.046 -0.007,-0.101 -0.022,-0.16 -0.016,-0.059 -0.046,-0.151 -0.092,-0.27l-0.38 -1.044 -2.911 0 -0.379 1.115c-0.009,0.03 -0.024,0.074 -0.044,0.136 -0.044,0.122 -0.066,0.21 -0.066,0.263 0,0.116 0.042,0.195 0.125,0.239 0.084,0.042 0.281,0.064 0.588,0.064l0.682 0 0 1 -4.104 0z"/>
  <path id="_8" class="fil0" d="M35.49 28.604l-2.472 -6.982c-0.117,-0.327 -0.248,-0.549 -0.395,-0.669 -0.147,-0.121 -0.356,-0.18 -0.621,-0.18l-0.382 0 0 -1 4.618 0 0 1 -0.685 0c-0.248,0 -0.425,0.03 -0.535,0.092 -0.11,0.064 -0.164,0.16 -0.164,0.294 0,0.077 0.015,0.171 0.041,0.283 0.029,0.11 0.068,0.239 0.119,0.384l1.636 4.58 1.748 -4.683c0.042,-0.101 0.077,-0.207 0.099,-0.312 0.024,-0.103 0.035,-0.193 0.035,-0.265 0,-0.143 -0.055,-0.239 -0.162,-0.292 -0.11,-0.055 -0.331,-0.081 -0.665,-0.081l-0.585 0 0 -1 4.2 0 0 1 -0.263 0c-0.311,0 -0.546,0.055 -0.7,0.164 -0.153,0.108 -0.298,0.345 -0.43,0.709l-2.608 6.958 -1.829 0z"/>
  <path id="_9" class="fil0" d="M41.463 28.604l0 -1 0.513 0c0.391,0 0.634,-0.046 0.728,-0.138 0.095,-0.093 0.141,-0.321 0.141,-0.683l0 -5.199c0,-0.357 -0.046,-0.583 -0.141,-0.673 -0.094,-0.092 -0.337,-0.138 -0.728,-0.138l-0.513 0 0 -1 8.687 0 0 3.514 -1.001 0c-0.026,-1.005 -0.191,-1.676 -0.491,-2.012 -0.303,-0.335 -0.915,-0.502 -1.838,-0.502l-2.119 0 0 2.711 0.5 0c0.553,0 0.915,-0.096 1.088,-0.287 0.171,-0.191 0.278,-0.63 0.32,-1.319l1 -0.006 0 4.429 -1 -0.007c-0.039,-0.757 -0.143,-1.246 -0.316,-1.465 -0.171,-0.222 -0.531,-0.331 -1.079,-0.331l-0.513 0 0 3.106 2.312 0c0.772,0 1.303,-0.18 1.59,-0.538 0.287,-0.357 0.47,-1.09 0.546,-2.2l1.001 0 0 3.738 -8.687 0z"/>
  <path id="_10" class="fil0" d="M51.398 19.773l4.738 0 0 1 -0.619 0c-0.395,0 -0.64,0.046 -0.737,0.14 -0.096,0.095 -0.144,0.32 -0.144,0.676l0 6.015 1.647 0c0.588,0 1.026,-0.051 1.318,-0.152 0.292,-0.101 0.5,-0.269 0.63,-0.504 0.125,-0.228 0.217,-0.505 0.276,-0.829 0.059,-0.327 0.09,-0.718 0.09,-1.172l0 -0.16 1.014 0 0 3.817 -8.213 0 0 -1 0.513 0c0.39,0 0.634,-0.046 0.728,-0.138 0.095,-0.093 0.141,-0.319 0.141,-0.678l0 -5.199c0,-0.36 -0.046,-0.586 -0.141,-0.678 -0.094,-0.092 -0.338,-0.138 -0.728,-0.138l-0.513 0 0 -1z"/>
 </g>
</svg>
